<svg xmlns="http://www.w3.org/2000/svg" xmlns:xlink="http://www.w3.org/1999/xlink" preserveAspectRatio="xMidYMid meet" width="500" height="500" viewBox="0 0 500 500" style="width:100%;height:100%"><defs><animateMotion repeatCount="indefinite" dur="5.005005s" begin="0s" xlink:href="#_R_G_L_4_G" fill="freeze" keyTimes="0;0.0666667;1" path="M239 238 C257,238 329,238 347,238 C347,238 347,238 347,238 " keyPoints="0;1;1" keySplines="0.333 0 0.667 1;0 0 0 0" calcMode="spline"/><animate repeatCount="indefinite" dur="5.005005s" begin="0s" xlink:href="#_R_G_L_4_G_M" fill="freeze" attributeName="opacity" from="1" to="0" keyTimes="0;0.0666667;0.0666667;1" values="1;1;0;0" keySplines="0 0 0 0;0 0 0 0;0 0 0 0" calcMode="spline"/><animateMotion repeatCount="indefinite" dur="5.005005s" begin="0s" xlink:href="#_R_G_L_3_G" fill="freeze" keyTimes="0;0.4666666;0.5333333;1" path="M347 238 C347,238 347,238 347,238 C329,238 257,238 239,238 C239,238 239,238 239,238 " keyPoints="0;0;1;1" keySplines="0.333 0 0.667 1;0.333 0 0.667 1;0 0 0 0" calcMode="spline"/><animate repeatCount="indefinite" dur="5.005005s" begin="0s" xlink:href="#_R_G_L_3_G_M" fill="freeze" attributeName="opacity" from="0" to="1" keyTimes="0;0.4666667;0.4666673;1" values="0;0;1;1" keySplines="0 0 0 0;0 0 0 0;0 0 0 0" calcMode="spline"/><animateMotion repeatCount="indefinite" dur="5.005005s" begin="0s" xlink:href="#_R_G_L_2_G" fill="freeze" keyTimes="0;0.0666667;0.1333333;1" path="M347 238 C347,238 347,238 347,238 C364.83,238 436.17,238 454,238 C454,238 454,238 454,238 " keyPoints="0;0;1;1" keySplines="0.333 0 0.667 1;0.333 0 0.667 1;0 0 0 0" calcMode="spline"/><animate repeatCount="indefinite" dur="5.005005s" begin="0s" xlink:href="#_R_G_L_2_G_M" fill="freeze" attributeName="opacity" from="1" to="0" keyTimes="0;0.1333333;0.1333333;1" values="1;1;0;0" keySplines="0 0 0 0;0 0 0 0;0 0 0 0" calcMode="spline"/><animateMotion repeatCount="indefinite" dur="5.005005s" begin="0s" xlink:href="#_R_G_L_1_G" fill="freeze" keyTimes="0;0.4;0.4666667;1" path="M454 238 C454,238 454,238 454,238 C436.17,238 364.83,238 347,238 C347,238 347,238 347,238 " keyPoints="0;0;1;1" keySplines="0.333 0 0.667 1;0.333 0 0.667 1;0 0 0 0" calcMode="spline"/><animate repeatCount="indefinite" dur="5.005005s" begin="0s" xlink:href="#_R_G_L_1_G_M" fill="freeze" attributeName="opacity" from="0" to="1" keyTimes="0;0.3333333;0.333334;1" values="0;0;1;1" keySplines="0 0 0 0;0 0 0 0;0 0 0 0" calcMode="spline"/><animateTransform repeatCount="indefinite" dur="5.005005s" begin="0s" xlink:href="#_R_G_L_0_G" fill="freeze" attributeName="transform" from="1 1" to="1 1" type="scale" additive="sum" keyTimes="0;0.1333333;0.2;0.3333333;1" values="1 1;1 1;0 1;1 1;1 1" keySplines="0.333 0 0.667 1;0.333 0 0.667 1;0.333 0 0.667 1;0 0 0 0" calcMode="spline"/><animate attributeType="XML" attributeName="opacity" dur="5s" from="0" to="1" xlink:href="#time_group"/></defs><g id="_R_G"><g id="_R_G_L_4_G_M"><g id="_R_G_L_4_G"><path id="_R_G_L_4_G_D_0_P_0" fill="#ffffff" fill-opacity="1" fill-rule="nonzero" d=" M-86.2 -161 C-86.2,-161 -86.2,182.16 -86.2,182.16 C-86.2,182.16 -145,182.16 -145,182.16 C-145,182.16 -145,-161 -145,-161 C-145,-161 -86.2,-161 -86.2,-161z "/></g></g><g id="_R_G_L_3_G_M"><g id="_R_G_L_3_G"><path id="_R_G_L_3_G_D_0_P_0" fill="#ffffff" fill-opacity="1" fill-rule="nonzero" d=" M-86.2 -161 C-86.2,-161 -86.2,182.16 -86.2,182.16 C-86.2,182.16 -145,182.16 -145,182.16 C-145,182.16 -145,-161 -145,-161 C-145,-161 -86.2,-161 -86.2,-161z "/></g></g><g id="_R_G_L_2_G_M"><g id="_R_G_L_2_G"><path id="_R_G_L_2_G_D_0_P_0" fill="#ffffff" fill-opacity="1" fill-rule="nonzero" d=" M-86.2 -161 C-86.2,-161 -86.2,182.16 -86.2,182.16 C-86.2,182.16 -145,182.16 -145,182.16 C-145,182.16 -145,-161 -145,-161 C-145,-161 -86.2,-161 -86.2,-161z "/></g></g><g id="_R_G_L_1_G_M"><g id="_R_G_L_1_G"><path id="_R_G_L_1_G_D_0_P_0" fill="#ffffff" fill-opacity="1" fill-rule="nonzero" d=" M-86.2 -161 C-86.2,-161 -86.2,182.16 -86.2,182.16 C-86.2,182.16 -145,182.16 -145,182.16 C-145,182.16 -145,-161 -145,-161 C-145,-161 -86.2,-161 -86.2,-161z "/></g></g><g id="_R_G_L_0_G" transform=" translate(454, 238)"><path id="_R_G_L_0_G_D_0_P_0" fill="#ffffff" fill-opacity="1" fill-rule="nonzero" d=" M-86.2 -161 C-86.2,-161 -86.2,182.16 -86.2,182.16 C-86.2,182.16 -145,182.16 -145,182.16 C-145,182.16 -145,-161 -145,-161 C-145,-161 -86.2,-161 -86.2,-161z "/></g></g><g id="time_group"/></svg>